<?xml version="1.0" encoding="UTF-8" standalone="no"?>
<!-- Created with Inkscape (http://www.inkscape.org/) -->

<svg
   version="1.1"
   id="svg1"
   width="132"
   height="100"
   viewBox="0 0 132 100"
   xmlns="http://www.w3.org/2000/svg"
   xmlns:svg="http://www.w3.org/2000/svg">
  <defs
     id="defs1" />
  <g
     id="g1">
    <path
       style="fill:#b9b9b9;fill-opacity:1"
       d="M 0.93112649,77.734756 1.1999935,55.77908 8.6999939,53.347086 C 23.088434,48.681404 25.317155,47.973917 43.199994,42.395375 c 9.9,-3.088299 19.8,-6.229703 22,-6.980898 2.2,-0.751194 12.1,-3.912448 22.000003,-7.025008 9.900004,-3.11256 21.313703,-6.748619 25.363773,-8.08013 4.05007,-1.331512 7.53757,-2.42093 7.75,-2.42093 0.21243,0 0.38623,9.847073 0.38623,21.882384 v 21.882384 l -8.75,2.747833 c -4.8125,1.511308 -12.124999,3.850863 -16.249999,5.199011 -4.125004,1.348149 -9.525004,3.046321 -12.000004,3.773717 -4.304959,1.265216 -13.432788,4.140223 -37.500003,11.811438 -6.05,1.928385 -15.95,5.078219 -22,6.999631 -6.05,1.921412 -13.82099,4.39621 -17.2688671,5.499551 l -6.26886741,2.006074 z"
       id="path1" />
  </g>
</svg>
